<svg xmlns="http://www.w3.org/2000/svg" width="914" height="366" viewBox="0 0 914 366" font-family="-apple-system,Segoe UI,Helvetica,Arial,sans-serif">
<rect width="914" height="366" fill="#1a1a19" rx="8"/>
<text x="46" y="26" fill="#ffffff" font-size="15" font-weight="600">SimQ vs Qiskit vs qsim vs qulacs — median time per full evaluation (log scale, lower is better)</text>
<text x="46" y="44" fill="#c3c2b7" font-size="11">Identical cross-validated circuits (12 values agree to 1e-12 vs Qiskit/qulacs, 5e-6 vs qsim) · Xeon 2.10 GHz, 4 vCPU · Qiskit 2.5.0/Aer 0.17.2 · Cirq 1.7.0/qsim 0.22.0 · qulacs 0.6.13 · ./benchmarks/run.sh</text>
<rect x="46" y="80" width="10" height="10" rx="2" fill="#3987e5"/>
<text x="60" y="89" fill="#c3c2b7" font-size="11">SimQ</text>
<rect x="114" y="80" width="10" height="10" rx="2" fill="#199e70"/>
<text x="128" y="89" fill="#c3c2b7" font-size="11">Statevector</text>
<rect x="238" y="80" width="10" height="10" rx="2" fill="#c98500"/>
<text x="252" y="89" fill="#c3c2b7" font-size="11">Aer</text>
<rect x="298" y="80" width="10" height="10" rx="2" fill="#a684f0"/>
<text x="312" y="89" fill="#c3c2b7" font-size="11">Cirq</text>
<rect x="366" y="80" width="10" height="10" rx="2" fill="#e8695f"/>
<text x="380" y="89" fill="#c3c2b7" font-size="11">qsim</text>
<rect x="434" y="80" width="10" height="10" rx="2" fill="#2dd4bf"/>
<text x="448" y="89" fill="#c3c2b7" font-size="11">qulacs</text>
<text x="46" y="60" fill="#ffffff" font-size="12" font-weight="600">VQE energy</text>
<line x1="46.0" y1="100" x2="46.0" y2="320" stroke="#33322f" stroke-width="1"/>
<text x="46.0" y="336" fill="#c3c2b7" font-size="9" text-anchor="middle">0.01</text>
<line x1="91.6" y1="100" x2="91.6" y2="320" stroke="#33322f" stroke-width="1"/>
<text x="91.6" y="336" fill="#c3c2b7" font-size="9" text-anchor="middle">0.1</text>
<line x1="137.2" y1="100" x2="137.2" y2="320" stroke="#33322f" stroke-width="1"/>
<text x="137.2" y="336" fill="#c3c2b7" font-size="9" text-anchor="middle">1</text>
<line x1="182.8" y1="100" x2="182.8" y2="320" stroke="#33322f" stroke-width="1"/>
<text x="182.8" y="336" fill="#c3c2b7" font-size="9" text-anchor="middle">10</text>
<line x1="228.4" y1="100" x2="228.4" y2="320" stroke="#33322f" stroke-width="1"/>
<text x="228.4" y="336" fill="#c3c2b7" font-size="9" text-anchor="middle">100</text>
<line x1="274.0" y1="100" x2="274.0" y2="320" stroke="#33322f" stroke-width="1"/>
<text x="274.0" y="336" fill="#c3c2b7" font-size="9" text-anchor="middle">1000</text>
<text x="159.0" y="350" fill="#c3c2b7" font-size="9" text-anchor="middle">ms</text>
<text x="38" y="126.0" fill="#c3c2b7" font-size="10" text-anchor="end">4q</text>
<rect x="46" y="100" width="24.7" height="6" rx="2" fill="#3987e5"/>
<text x="74.7" y="104.5" fill="#c3c2b7" font-size="8.5">0.03</text>
<rect x="46" y="108" width="104.5" height="6" rx="2" fill="#199e70"/>
<text x="154.5" y="112.5" fill="#c3c2b7" font-size="8.5">2.0</text>
<rect x="46" y="116" width="97.5" height="6" rx="2" fill="#c98500"/>
<text x="147.5" y="120.5" fill="#c3c2b7" font-size="8.5">1.4</text>
<rect x="46" y="124" width="114.2" height="6" rx="2" fill="#a684f0"/>
<text x="164.2" y="128.5" fill="#c3c2b7" font-size="8.5">3.2</text>
<rect x="46" y="132" width="87.0" height="6" rx="2" fill="#e8695f"/>
<text x="137.0" y="136.5" fill="#c3c2b7" font-size="8.5">0.81</text>
<rect x="46" y="140" width="33.1" height="6" rx="2" fill="#2dd4bf"/>
<text x="83.1" y="144.5" fill="#c3c2b7" font-size="8.5">0.05</text>
<text x="38" y="184.0" fill="#c3c2b7" font-size="10" text-anchor="end">8q</text>
<rect x="46" y="158" width="41.7" height="6" rx="2" fill="#3987e5"/>
<text x="91.7" y="162.5" fill="#c3c2b7" font-size="8.5">0.08</text>
<rect x="46" y="166" width="116.8" height="6" rx="2" fill="#199e70"/>
<text x="166.8" y="170.5" fill="#c3c2b7" font-size="8.5">3.6</text>
<rect x="46" y="174" width="105.6" height="6" rx="2" fill="#c98500"/>
<text x="155.6" y="178.5" fill="#c3c2b7" font-size="8.5">2.1</text>
<rect x="46" y="182" width="127.5" height="6" rx="2" fill="#a684f0"/>
<text x="177.5" y="186.5" fill="#c3c2b7" font-size="8.5">6.2</text>
<rect x="46" y="190" width="99.9" height="6" rx="2" fill="#e8695f"/>
<text x="149.9" y="194.5" fill="#c3c2b7" font-size="8.5">1.6</text>
<rect x="46" y="198" width="43.2" height="6" rx="2" fill="#2dd4bf"/>
<text x="93.2" y="202.5" fill="#c3c2b7" font-size="8.5">0.09</text>
<text x="38" y="242.0" fill="#c3c2b7" font-size="10" text-anchor="end">12q</text>
<rect x="46" y="216" width="79.5" height="6" rx="2" fill="#3987e5"/>
<text x="129.5" y="220.5" fill="#c3c2b7" font-size="8.5">0.55</text>
<rect x="46" y="224" width="133.2" height="6" rx="2" fill="#199e70"/>
<text x="183.2" y="228.5" fill="#c3c2b7" font-size="8.5">8.3</text>
<rect x="46" y="232" width="119.2" height="6" rx="2" fill="#c98500"/>
<text x="169.2" y="236.5" fill="#c3c2b7" font-size="8.5">4.1</text>
<rect x="46" y="240" width="137.2" height="6" rx="2" fill="#a684f0"/>
<text x="187.2" y="244.5" fill="#c3c2b7" font-size="8.5">10.2</text>
<rect x="46" y="248" width="108.5" height="6" rx="2" fill="#e8695f"/>
<text x="158.5" y="252.5" fill="#c3c2b7" font-size="8.5">2.4</text>
<rect x="46" y="256" width="90.4" height="6" rx="2" fill="#2dd4bf"/>
<text x="140.4" y="260.5" fill="#c3c2b7" font-size="8.5">0.96</text>
<text x="38" y="300.0" fill="#c3c2b7" font-size="10" text-anchor="end">16q</text>
<rect x="46" y="274" width="136.5" height="6" rx="2" fill="#3987e5"/>
<text x="186.5" y="278.5" fill="#c3c2b7" font-size="8.5">9.8</text>
<rect x="46" y="282" width="176.8" height="6" rx="2" fill="#199e70"/>
<text x="226.8" y="286.5" fill="#c3c2b7" font-size="8.5">75.3</text>
<rect x="46" y="290" width="144.0" height="6" rx="2" fill="#c98500"/>
<text x="194.0" y="294.5" fill="#c3c2b7" font-size="8.5">14.4</text>
<rect x="46" y="298" width="158.2" height="6" rx="2" fill="#a684f0"/>
<text x="208.2" y="302.5" fill="#c3c2b7" font-size="8.5">29.5</text>
<rect x="46" y="306" width="125.9" height="6" rx="2" fill="#e8695f"/>
<text x="175.9" y="310.5" fill="#c3c2b7" font-size="8.5">5.8</text>
<rect x="46" y="314" width="143.6" height="6" rx="2" fill="#2dd4bf"/>
<text x="193.6" y="318.5" fill="#c3c2b7" font-size="8.5">14.1</text>
<text x="340" y="60" fill="#ffffff" font-size="12" font-weight="600">QAOA MaxCut</text>
<line x1="340.0" y1="100" x2="340.0" y2="320" stroke="#33322f" stroke-width="1"/>
<text x="340.0" y="336" fill="#c3c2b7" font-size="9" text-anchor="middle">0.01</text>
<line x1="385.6" y1="100" x2="385.6" y2="320" stroke="#33322f" stroke-width="1"/>
<text x="385.6" y="336" fill="#c3c2b7" font-size="9" text-anchor="middle">0.1</text>
<line x1="431.2" y1="100" x2="431.2" y2="320" stroke="#33322f" stroke-width="1"/>
<text x="431.2" y="336" fill="#c3c2b7" font-size="9" text-anchor="middle">1</text>
<line x1="476.8" y1="100" x2="476.8" y2="320" stroke="#33322f" stroke-width="1"/>
<text x="476.8" y="336" fill="#c3c2b7" font-size="9" text-anchor="middle">10</text>
<line x1="522.4" y1="100" x2="522.4" y2="320" stroke="#33322f" stroke-width="1"/>
<text x="522.4" y="336" fill="#c3c2b7" font-size="9" text-anchor="middle">100</text>
<line x1="568.0" y1="100" x2="568.0" y2="320" stroke="#33322f" stroke-width="1"/>
<text x="568.0" y="336" fill="#c3c2b7" font-size="9" text-anchor="middle">1000</text>
<text x="453.0" y="350" fill="#c3c2b7" font-size="9" text-anchor="middle">ms</text>
<rect x="340" y="100" width="19.7" height="6" rx="2" fill="#3987e5"/>
<text x="363.7" y="104.5" fill="#c3c2b7" font-size="8.5">0.03</text>
<rect x="340" y="108" width="100.8" height="6" rx="2" fill="#199e70"/>
<text x="444.8" y="112.5" fill="#c3c2b7" font-size="8.5">1.6</text>
<rect x="340" y="116" width="97.7" height="6" rx="2" fill="#c98500"/>
<text x="441.7" y="120.5" fill="#c3c2b7" font-size="8.5">1.4</text>
<rect x="340" y="124" width="114.0" height="6" rx="2" fill="#a684f0"/>
<text x="458.0" y="128.5" fill="#c3c2b7" font-size="8.5">3.2</text>
<rect x="340" y="132" width="86.8" height="6" rx="2" fill="#e8695f"/>
<text x="430.8" y="136.5" fill="#c3c2b7" font-size="8.5">0.80</text>
<rect x="340" y="140" width="30.5" height="6" rx="2" fill="#2dd4bf"/>
<text x="374.5" y="144.5" fill="#c3c2b7" font-size="8.5">0.05</text>
<rect x="340" y="158" width="34.5" height="6" rx="2" fill="#3987e5"/>
<text x="378.5" y="162.5" fill="#c3c2b7" font-size="8.5">0.06</text>
<rect x="340" y="166" width="118.7" height="6" rx="2" fill="#199e70"/>
<text x="462.7" y="170.5" fill="#c3c2b7" font-size="8.5">4.0</text>
<rect x="340" y="174" width="110.2" height="6" rx="2" fill="#c98500"/>
<text x="454.2" y="178.5" fill="#c3c2b7" font-size="8.5">2.6</text>
<rect x="340" y="182" width="127.7" height="6" rx="2" fill="#a684f0"/>
<text x="471.7" y="186.5" fill="#c3c2b7" font-size="8.5">6.3</text>
<rect x="340" y="190" width="99.5" height="6" rx="2" fill="#e8695f"/>
<text x="443.5" y="194.5" fill="#c3c2b7" font-size="8.5">1.5</text>
<rect x="340" y="198" width="40.6" height="6" rx="2" fill="#2dd4bf"/>
<text x="384.6" y="202.5" fill="#c3c2b7" font-size="8.5">0.08</text>
<rect x="340" y="216" width="82.3" height="6" rx="2" fill="#3987e5"/>
<text x="426.3" y="220.5" fill="#c3c2b7" font-size="8.5">0.64</text>
<rect x="340" y="224" width="130.4" height="6" rx="2" fill="#199e70"/>
<text x="474.4" y="228.5" fill="#c3c2b7" font-size="8.5">7.2</text>
<rect x="340" y="232" width="123.5" height="6" rx="2" fill="#c98500"/>
<text x="467.5" y="236.5" fill="#c3c2b7" font-size="8.5">5.1</text>
<rect x="340" y="240" width="137.2" height="6" rx="2" fill="#a684f0"/>
<text x="481.2" y="244.5" fill="#c3c2b7" font-size="8.5">10.2</text>
<rect x="340" y="248" width="107.5" height="6" rx="2" fill="#e8695f"/>
<text x="451.5" y="252.5" fill="#c3c2b7" font-size="8.5">2.3</text>
<rect x="340" y="256" width="88.1" height="6" rx="2" fill="#2dd4bf"/>
<text x="432.1" y="260.5" fill="#c3c2b7" font-size="8.5">0.86</text>
<rect x="340" y="274" width="133.8" height="6" rx="2" fill="#3987e5"/>
<text x="477.8" y="278.5" fill="#c3c2b7" font-size="8.5">8.6</text>
<rect x="340" y="282" width="175.0" height="6" rx="2" fill="#199e70"/>
<text x="519.0" y="286.5" fill="#c3c2b7" font-size="8.5">68.9</text>
<rect x="340" y="290" width="142.2" height="6" rx="2" fill="#c98500"/>
<text x="486.2" y="294.5" fill="#c3c2b7" font-size="8.5">13.2</text>
<rect x="340" y="298" width="159.7" height="6" rx="2" fill="#a684f0"/>
<text x="503.7" y="302.5" fill="#c3c2b7" font-size="8.5">31.8</text>
<rect x="340" y="306" width="122.2" height="6" rx="2" fill="#e8695f"/>
<text x="466.2" y="310.5" fill="#c3c2b7" font-size="8.5">4.8</text>
<rect x="340" y="314" width="133.9" height="6" rx="2" fill="#2dd4bf"/>
<text x="477.9" y="318.5" fill="#c3c2b7" font-size="8.5">8.6</text>
<text x="634" y="60" fill="#ffffff" font-size="12" font-weight="600">GHZ 1024 shots</text>
<line x1="634.0" y1="100" x2="634.0" y2="320" stroke="#33322f" stroke-width="1"/>
<text x="634.0" y="336" fill="#c3c2b7" font-size="9" text-anchor="middle">0.01</text>
<line x1="679.6" y1="100" x2="679.6" y2="320" stroke="#33322f" stroke-width="1"/>
<text x="679.6" y="336" fill="#c3c2b7" font-size="9" text-anchor="middle">0.1</text>
<line x1="725.2" y1="100" x2="725.2" y2="320" stroke="#33322f" stroke-width="1"/>
<text x="725.2" y="336" fill="#c3c2b7" font-size="9" text-anchor="middle">1</text>
<line x1="770.8" y1="100" x2="770.8" y2="320" stroke="#33322f" stroke-width="1"/>
<text x="770.8" y="336" fill="#c3c2b7" font-size="9" text-anchor="middle">10</text>
<line x1="816.4" y1="100" x2="816.4" y2="320" stroke="#33322f" stroke-width="1"/>
<text x="816.4" y="336" fill="#c3c2b7" font-size="9" text-anchor="middle">100</text>
<line x1="862.0" y1="100" x2="862.0" y2="320" stroke="#33322f" stroke-width="1"/>
<text x="862.0" y="336" fill="#c3c2b7" font-size="9" text-anchor="middle">1000</text>
<text x="747.0" y="350" fill="#c3c2b7" font-size="9" text-anchor="middle">ms</text>
<rect x="634" y="100" width="24.8" height="6" rx="2" fill="#3987e5"/>
<text x="662.8" y="104.5" fill="#c3c2b7" font-size="8.5">0.03</text>
<rect x="634" y="108" width="90.8" height="6" rx="2" fill="#199e70"/>
<text x="728.8" y="112.5" fill="#c3c2b7" font-size="8.5">0.98</text>
<rect x="634" y="116" width="94.3" height="6" rx="2" fill="#c98500"/>
<text x="732.3" y="120.5" fill="#c3c2b7" font-size="8.5">1.2</text>
<rect x="634" y="124" width="110.8" height="6" rx="2" fill="#a684f0"/>
<text x="748.8" y="128.5" fill="#c3c2b7" font-size="8.5">2.7</text>
<rect x="634" y="132" width="92.7" height="6" rx="2" fill="#e8695f"/>
<text x="730.7" y="136.5" fill="#c3c2b7" font-size="8.5">1.1</text>
<rect x="634" y="140" width="36.7" height="6" rx="2" fill="#2dd4bf"/>
<text x="674.7" y="144.5" fill="#c3c2b7" font-size="8.5">0.06</text>
<rect x="634" y="158" width="25.3" height="6" rx="2" fill="#3987e5"/>
<text x="663.3" y="162.5" fill="#c3c2b7" font-size="8.5">0.04</text>
<rect x="634" y="166" width="110.0" height="6" rx="2" fill="#199e70"/>
<text x="748.0" y="170.5" fill="#c3c2b7" font-size="8.5">2.6</text>
<rect x="634" y="174" width="101.2" height="6" rx="2" fill="#c98500"/>
<text x="739.2" y="178.5" fill="#c3c2b7" font-size="8.5">1.7</text>
<rect x="634" y="182" width="120.1" height="6" rx="2" fill="#a684f0"/>
<text x="758.1" y="186.5" fill="#c3c2b7" font-size="8.5">4.3</text>
<rect x="634" y="190" width="100.5" height="6" rx="2" fill="#e8695f"/>
<text x="738.5" y="194.5" fill="#c3c2b7" font-size="8.5">1.6</text>
<rect x="634" y="198" width="33.8" height="6" rx="2" fill="#2dd4bf"/>
<text x="671.8" y="202.5" fill="#c3c2b7" font-size="8.5">0.06</text>
<rect x="634" y="216" width="31.6" height="6" rx="2" fill="#3987e5"/>
<text x="669.6" y="220.5" fill="#c3c2b7" font-size="8.5">0.05</text>
<rect x="634" y="224" width="147.5" height="6" rx="2" fill="#199e70"/>
<text x="785.5" y="228.5" fill="#c3c2b7" font-size="8.5">17.2</text>
<rect x="634" y="232" width="105.5" height="6" rx="2" fill="#c98500"/>
<text x="743.5" y="236.5" fill="#c3c2b7" font-size="8.5">2.1</text>
<rect x="634" y="240" width="127.9" height="6" rx="2" fill="#a684f0"/>
<text x="765.9" y="244.5" fill="#c3c2b7" font-size="8.5">6.4</text>
<rect x="634" y="248" width="106.5" height="6" rx="2" fill="#e8695f"/>
<text x="744.5" y="252.5" fill="#c3c2b7" font-size="8.5">2.2</text>
<rect x="634" y="256" width="44.2" height="6" rx="2" fill="#2dd4bf"/>
<text x="682.2" y="260.5" fill="#c3c2b7" font-size="8.5">0.09</text>
<rect x="634" y="274" width="64.4" height="6" rx="2" fill="#3987e5"/>
<text x="702.4" y="278.5" fill="#c3c2b7" font-size="8.5">0.26</text>
<rect x="634" y="282" width="219.6" height="6" rx="2" fill="#199e70"/>
<text x="857.6" y="286.5" fill="#c3c2b7" font-size="8.5">654</text>
<rect x="634" y="290" width="119.3" height="6" rx="2" fill="#c98500"/>
<text x="757.3" y="294.5" fill="#c3c2b7" font-size="8.5">4.1</text>
<rect x="634" y="298" width="134.9" height="6" rx="2" fill="#a684f0"/>
<text x="772.9" y="302.5" fill="#c3c2b7" font-size="8.5">9.1</text>
<rect x="634" y="306" width="115.1" height="6" rx="2" fill="#e8695f"/>
<text x="753.1" y="310.5" fill="#c3c2b7" font-size="8.5">3.3</text>
<rect x="634" y="314" width="67.5" height="6" rx="2" fill="#2dd4bf"/>
<text x="705.5" y="318.5" fill="#c3c2b7" font-size="8.5">0.30</text>
</svg>