<svg xmlns="http://www.w3.org/2000/svg" width="914" height="318" viewBox="0 0 914 318" font-family="-apple-system,Segoe UI,Helvetica,Arial,sans-serif">
<rect width="914" height="318" fill="#1a1a19" rx="8"/>
<text x="46" y="26" fill="#ffffff" font-size="15" font-weight="600">SimQ vs Qiskit — median time per full evaluation (log scale, lower is better)</text>
<text x="46" y="44" fill="#c3c2b7" font-size="11">Identical cross-validated circuits (12 values agree to 1e-12) · Xeon 2.80 GHz, 4 vCPU · Qiskit 2.5.0 / Aer 0.17.2 · ./benchmarks/run.sh</text>
<rect x="46" y="80" width="10" height="10" rx="2" fill="#3987e5"/>
<text x="60" y="89" fill="#c3c2b7" font-size="11">SimQ</text>
<rect x="114" y="80" width="10" height="10" rx="2" fill="#199e70"/>
<text x="128" y="89" fill="#c3c2b7" font-size="11">Statevector</text>
<rect x="238" y="80" width="10" height="10" rx="2" fill="#c98500"/>
<text x="252" y="89" fill="#c3c2b7" font-size="11">Aer</text>
<text x="46" y="60" fill="#ffffff" font-size="12" font-weight="600">VQE energy</text>
<line x1="46.0" y1="100" x2="46.0" y2="272" stroke="#33322f" stroke-width="1"/>
<text x="46.0" y="288" fill="#c3c2b7" font-size="9" text-anchor="middle">0.01</text>
<line x1="91.6" y1="100" x2="91.6" y2="272" stroke="#33322f" stroke-width="1"/>
<text x="91.6" y="288" fill="#c3c2b7" font-size="9" text-anchor="middle">0.1</text>
<line x1="137.2" y1="100" x2="137.2" y2="272" stroke="#33322f" stroke-width="1"/>
<text x="137.2" y="288" fill="#c3c2b7" font-size="9" text-anchor="middle">1</text>
<line x1="182.8" y1="100" x2="182.8" y2="272" stroke="#33322f" stroke-width="1"/>
<text x="182.8" y="288" fill="#c3c2b7" font-size="9" text-anchor="middle">10</text>
<line x1="228.4" y1="100" x2="228.4" y2="272" stroke="#33322f" stroke-width="1"/>
<text x="228.4" y="288" fill="#c3c2b7" font-size="9" text-anchor="middle">100</text>
<line x1="274.0" y1="100" x2="274.0" y2="272" stroke="#33322f" stroke-width="1"/>
<text x="274.0" y="288" fill="#c3c2b7" font-size="9" text-anchor="middle">1000</text>
<text x="159.0" y="302" fill="#c3c2b7" font-size="9" text-anchor="middle">ms</text>
<text x="38" y="118.5" fill="#c3c2b7" font-size="10" text-anchor="end">4q</text>
<rect x="46" y="100" width="18.3" height="9" rx="2" fill="#3987e5"/>
<text x="68.3" y="107.5" fill="#c3c2b7" font-size="8.5">0.03</text>
<rect x="46" y="111" width="102.1" height="9" rx="2" fill="#199e70"/>
<text x="152.1" y="118.5" fill="#c3c2b7" font-size="8.5">1.7</text>
<rect x="46" y="122" width="99.8" height="9" rx="2" fill="#c98500"/>
<text x="149.8" y="129.5" fill="#c3c2b7" font-size="8.5">1.5</text>
<text x="38" y="165.5" fill="#c3c2b7" font-size="10" text-anchor="end">8q</text>
<rect x="46" y="147" width="38.8" height="9" rx="2" fill="#3987e5"/>
<text x="88.8" y="154.5" fill="#c3c2b7" font-size="8.5">0.07</text>
<rect x="46" y="158" width="123.2" height="9" rx="2" fill="#199e70"/>
<text x="173.2" y="165.5" fill="#c3c2b7" font-size="8.5">5.0</text>
<rect x="46" y="169" width="104.6" height="9" rx="2" fill="#c98500"/>
<text x="154.6" y="176.5" fill="#c3c2b7" font-size="8.5">2.0</text>
<text x="38" y="212.5" fill="#c3c2b7" font-size="10" text-anchor="end">12q</text>
<rect x="46" y="194" width="80.0" height="9" rx="2" fill="#3987e5"/>
<text x="130.0" y="201.5" fill="#c3c2b7" font-size="8.5">0.57</text>
<rect x="46" y="205" width="137.9" height="9" rx="2" fill="#199e70"/>
<text x="187.9" y="212.5" fill="#c3c2b7" font-size="8.5">10.6</text>
<rect x="46" y="216" width="121.7" height="9" rx="2" fill="#c98500"/>
<text x="171.7" y="223.5" fill="#c3c2b7" font-size="8.5">4.7</text>
<text x="38" y="259.5" fill="#c3c2b7" font-size="10" text-anchor="end">16q</text>
<rect x="46" y="241" width="138.4" height="9" rx="2" fill="#3987e5"/>
<text x="188.4" y="248.5" fill="#c3c2b7" font-size="8.5">10.8</text>
<rect x="46" y="252" width="179.1" height="9" rx="2" fill="#199e70"/>
<text x="229.1" y="259.5" fill="#c3c2b7" font-size="8.5">84.7</text>
<rect x="46" y="263" width="148.1" height="9" rx="2" fill="#c98500"/>
<text x="198.1" y="270.5" fill="#c3c2b7" font-size="8.5">17.7</text>
<text x="340" y="60" fill="#ffffff" font-size="12" font-weight="600">QAOA MaxCut</text>
<line x1="340.0" y1="100" x2="340.0" y2="272" stroke="#33322f" stroke-width="1"/>
<text x="340.0" y="288" fill="#c3c2b7" font-size="9" text-anchor="middle">0.01</text>
<line x1="385.6" y1="100" x2="385.6" y2="272" stroke="#33322f" stroke-width="1"/>
<text x="385.6" y="288" fill="#c3c2b7" font-size="9" text-anchor="middle">0.1</text>
<line x1="431.2" y1="100" x2="431.2" y2="272" stroke="#33322f" stroke-width="1"/>
<text x="431.2" y="288" fill="#c3c2b7" font-size="9" text-anchor="middle">1</text>
<line x1="476.8" y1="100" x2="476.8" y2="272" stroke="#33322f" stroke-width="1"/>
<text x="476.8" y="288" fill="#c3c2b7" font-size="9" text-anchor="middle">10</text>
<line x1="522.4" y1="100" x2="522.4" y2="272" stroke="#33322f" stroke-width="1"/>
<text x="522.4" y="288" fill="#c3c2b7" font-size="9" text-anchor="middle">100</text>
<line x1="568.0" y1="100" x2="568.0" y2="272" stroke="#33322f" stroke-width="1"/>
<text x="568.0" y="288" fill="#c3c2b7" font-size="9" text-anchor="middle">1000</text>
<text x="453.0" y="302" fill="#c3c2b7" font-size="9" text-anchor="middle">ms</text>
<rect x="340" y="100" width="11.8" height="9" rx="2" fill="#3987e5"/>
<text x="355.8" y="107.5" fill="#c3c2b7" font-size="8.5">0.02</text>
<rect x="340" y="111" width="99.7" height="9" rx="2" fill="#199e70"/>
<text x="443.7" y="118.5" fill="#c3c2b7" font-size="8.5">1.5</text>
<rect x="340" y="122" width="100.9" height="9" rx="2" fill="#c98500"/>
<text x="444.9" y="129.5" fill="#c3c2b7" font-size="8.5">1.6</text>
<rect x="340" y="147" width="32.3" height="9" rx="2" fill="#3987e5"/>
<text x="376.3" y="154.5" fill="#c3c2b7" font-size="8.5">0.05</text>
<rect x="340" y="158" width="118.0" height="9" rx="2" fill="#199e70"/>
<text x="462.0" y="165.5" fill="#c3c2b7" font-size="8.5">3.9</text>
<rect x="340" y="169" width="110.6" height="9" rx="2" fill="#c98500"/>
<text x="454.6" y="176.5" fill="#c3c2b7" font-size="8.5">2.7</text>
<rect x="340" y="194" width="83.0" height="9" rx="2" fill="#3987e5"/>
<text x="427.0" y="201.5" fill="#c3c2b7" font-size="8.5">0.66</text>
<rect x="340" y="205" width="136.5" height="9" rx="2" fill="#199e70"/>
<text x="480.5" y="212.5" fill="#c3c2b7" font-size="8.5">9.9</text>
<rect x="340" y="216" width="123.5" height="9" rx="2" fill="#c98500"/>
<text x="467.5" y="223.5" fill="#c3c2b7" font-size="8.5">5.1</text>
<rect x="340" y="241" width="134.4" height="9" rx="2" fill="#3987e5"/>
<text x="478.4" y="248.5" fill="#c3c2b7" font-size="8.5">8.9</text>
<rect x="340" y="252" width="176.5" height="9" rx="2" fill="#199e70"/>
<text x="520.5" y="259.5" fill="#c3c2b7" font-size="8.5">74.3</text>
<rect x="340" y="263" width="143.4" height="9" rx="2" fill="#c98500"/>
<text x="487.4" y="270.5" fill="#c3c2b7" font-size="8.5">13.9</text>
<text x="634" y="60" fill="#ffffff" font-size="12" font-weight="600">GHZ 1024 shots</text>
<line x1="634.0" y1="100" x2="634.0" y2="272" stroke="#33322f" stroke-width="1"/>
<text x="634.0" y="288" fill="#c3c2b7" font-size="9" text-anchor="middle">0.01</text>
<line x1="679.6" y1="100" x2="679.6" y2="272" stroke="#33322f" stroke-width="1"/>
<text x="679.6" y="288" fill="#c3c2b7" font-size="9" text-anchor="middle">0.1</text>
<line x1="725.2" y1="100" x2="725.2" y2="272" stroke="#33322f" stroke-width="1"/>
<text x="725.2" y="288" fill="#c3c2b7" font-size="9" text-anchor="middle">1</text>
<line x1="770.8" y1="100" x2="770.8" y2="272" stroke="#33322f" stroke-width="1"/>
<text x="770.8" y="288" fill="#c3c2b7" font-size="9" text-anchor="middle">10</text>
<line x1="816.4" y1="100" x2="816.4" y2="272" stroke="#33322f" stroke-width="1"/>
<text x="816.4" y="288" fill="#c3c2b7" font-size="9" text-anchor="middle">100</text>
<line x1="862.0" y1="100" x2="862.0" y2="272" stroke="#33322f" stroke-width="1"/>
<text x="862.0" y="288" fill="#c3c2b7" font-size="9" text-anchor="middle">1000</text>
<text x="747.0" y="302" fill="#c3c2b7" font-size="9" text-anchor="middle">ms</text>
<rect x="634" y="100" width="20.8" height="9" rx="2" fill="#3987e5"/>
<text x="658.8" y="107.5" fill="#c3c2b7" font-size="8.5">0.03</text>
<rect x="634" y="111" width="90.6" height="9" rx="2" fill="#199e70"/>
<text x="728.6" y="118.5" fill="#c3c2b7" font-size="8.5">0.97</text>
<rect x="634" y="122" width="99.2" height="9" rx="2" fill="#c98500"/>
<text x="737.2" y="129.5" fill="#c3c2b7" font-size="8.5">1.5</text>
<rect x="634" y="147" width="24.3" height="9" rx="2" fill="#3987e5"/>
<text x="662.3" y="154.5" fill="#c3c2b7" font-size="8.5">0.03</text>
<rect x="634" y="158" width="112.6" height="9" rx="2" fill="#199e70"/>
<text x="750.6" y="165.5" fill="#c3c2b7" font-size="8.5">2.9</text>
<rect x="634" y="169" width="105.4" height="9" rx="2" fill="#c98500"/>
<text x="743.4" y="176.5" fill="#c3c2b7" font-size="8.5">2.0</text>
<rect x="634" y="194" width="39.8" height="9" rx="2" fill="#3987e5"/>
<text x="677.8" y="201.5" fill="#c3c2b7" font-size="8.5">0.07</text>
<rect x="634" y="205" width="151.6" height="9" rx="2" fill="#199e70"/>
<text x="789.6" y="212.5" fill="#c3c2b7" font-size="8.5">21.1</text>
<rect x="634" y="216" width="115.2" height="9" rx="2" fill="#c98500"/>
<text x="753.2" y="223.5" fill="#c3c2b7" font-size="8.5">3.4</text>
<rect x="634" y="241" width="86.4" height="9" rx="2" fill="#3987e5"/>
<text x="724.4" y="248.5" fill="#c3c2b7" font-size="8.5">0.79</text>
<rect x="634" y="252" width="218.8" height="9" rx="2" fill="#199e70"/>
<text x="856.8" y="259.5" fill="#c3c2b7" font-size="8.5">628</text>
<rect x="634" y="263" width="122.2" height="9" rx="2" fill="#c98500"/>
<text x="760.2" y="270.5" fill="#c3c2b7" font-size="8.5">4.8</text>
</svg>