<svg xmlns="http://www.w3.org/2000/svg" width="980" height="564" viewBox="0 0 980 564" font-family="-apple-system,Segoe UI,Helvetica,Arial,sans-serif">
<rect width="980" height="564" fill="#1a1a19" rx="8"/>
<text x="90" y="24" fill="#ffffff" font-size="15" font-weight="600">SimQ vs Aer vs qulacs — scaling to 30 qubits (log scale, lower is better)</text>
<text x="90" y="42" fill="#c3c2b7" font-size="11">1-layer VQE circuit (H+RY+CNOT-chain+RZ) · Xeon 2.10 GHz, 4 vCPU, 15 GiB · medians of 3 fresh runs</text>
<rect x="90" y="58" width="10" height="10" rx="2" fill="#3987e5"/>
<text x="104" y="67" fill="#c3c2b7" font-size="11">SimQ</text>
<rect x="158" y="58" width="10" height="10" rx="2" fill="#c98500"/>
<text x="172" y="67" fill="#c3c2b7" font-size="11">Aer</text>
<rect x="218" y="58" width="10" height="10" rx="2" fill="#2dd4bf"/>
<text x="232" y="67" fill="#c3c2b7" font-size="11">qulacs</text>
<rect x="302" y="58" width="10" height="10" rx="2" fill="none" stroke="#4a4945" stroke-width="1.5" stroke-dasharray="2,2"/>
<text x="316" y="67" fill="#c3c2b7" font-size="11">rejected / not attempted</text>
<line x1="90.0" y1="78" x2="90.0" y2="514" stroke="#33322f" stroke-width="1"/>
<text x="90.0" y="530" fill="#c3c2b7" font-size="9" text-anchor="middle">10ms</text>
<line x1="251.1" y1="78" x2="251.1" y2="514" stroke="#33322f" stroke-width="1"/>
<text x="251.1" y="530" fill="#c3c2b7" font-size="9" text-anchor="middle">100ms</text>
<line x1="412.1" y1="78" x2="412.1" y2="514" stroke="#33322f" stroke-width="1"/>
<text x="412.1" y="530" fill="#c3c2b7" font-size="9" text-anchor="middle">1s</text>
<line x1="573.2" y1="78" x2="573.2" y2="514" stroke="#33322f" stroke-width="1"/>
<text x="573.2" y="530" fill="#c3c2b7" font-size="9" text-anchor="middle">10s</text>
<text x="82" y="109.0" fill="#ffffff" font-size="11" font-weight="600" text-anchor="end">20q</text>
<text x="82" y="121.0" fill="#c3c2b7" font-size="8.5" text-anchor="end">16 MiB</text>
<rect x="90" y="78" width="40.7" height="16" rx="2" fill="#3987e5"/>
<text x="135.7" y="90.5" fill="#c3c2b7" font-size="9.5">17.9 ms</text>
<rect x="90" y="98" width="91.9" height="16" rx="2" fill="#c98500"/>
<text x="186.9" y="110.5" fill="#c3c2b7" font-size="9.5">37.2 ms</text>
<rect x="90" y="118" width="77.5" height="16" rx="2" fill="#2dd4bf"/>
<text x="172.5" y="130.5" fill="#c3c2b7" font-size="9.5">30.3 ms</text>
<text x="82" y="185.0" fill="#ffffff" font-size="11" font-weight="600" text-anchor="end">22q</text>
<text x="82" y="197.0" fill="#c3c2b7" font-size="8.5" text-anchor="end">63 MiB</text>
<rect x="90" y="154" width="152.3" height="16" rx="2" fill="#3987e5"/>
<text x="247.3" y="166.5" fill="#c3c2b7" font-size="9.5">88.3 ms</text>
<rect x="90" y="174" width="198.2" height="16" rx="2" fill="#c98500"/>
<text x="293.2" y="186.5" fill="#c3c2b7" font-size="9.5">170 ms</text>
<rect x="90" y="194" width="185.5" height="16" rx="2" fill="#2dd4bf"/>
<text x="280.5" y="206.5" fill="#c3c2b7" font-size="9.5">142 ms</text>
<text x="82" y="261.0" fill="#ffffff" font-size="11" font-weight="600" text-anchor="end">24q</text>
<text x="82" y="273.0" fill="#c3c2b7" font-size="8.5" text-anchor="end">256 MiB</text>
<rect x="90" y="230" width="284.1" height="16" rx="2" fill="#3987e5"/>
<text x="379.1" y="242.5" fill="#c3c2b7" font-size="9.5">581 ms</text>
<rect x="90" y="250" width="305.0" height="16" rx="2" fill="#c98500"/>
<text x="400.0" y="262.5" fill="#c3c2b7" font-size="9.5">784 ms</text>
<rect x="90" y="270" width="311.2" height="16" rx="2" fill="#2dd4bf"/>
<text x="406.2" y="282.5" fill="#c3c2b7" font-size="9.5">855 ms</text>
<text x="82" y="337.0" fill="#ffffff" font-size="11" font-weight="600" text-anchor="end">26q</text>
<text x="82" y="349.0" fill="#c3c2b7" font-size="8.5" text-anchor="end">1 GiB</text>
<rect x="90" y="306" width="395.6" height="16" rx="2" fill="#3987e5"/>
<text x="490.6" y="318.5" fill="#c3c2b7" font-size="9.5">2.86 s</text>
<rect x="90" y="326" width="402.5" height="16" rx="2" fill="#c98500"/>
<text x="497.5" y="338.5" fill="#c3c2b7" font-size="9.5">3.16 s</text>
<rect x="90" y="346" width="428.0" height="16" rx="2" fill="#2dd4bf"/>
<text x="523.0" y="358.5" fill="#c3c2b7" font-size="9.5">4.55 s</text>
<text x="82" y="413.0" fill="#ffffff" font-size="11" font-weight="600" text-anchor="end">28q</text>
<text x="82" y="425.0" fill="#c3c2b7" font-size="8.5" text-anchor="end">4 GiB</text>
<rect x="90" y="382" width="495.0" height="16" rx="2" fill="#3987e5"/>
<text x="590.0" y="394.5" fill="#c3c2b7" font-size="9.5">11.85 s</text>
<rect x="90" y="402" width="504.0" height="16" rx="2" fill="#c98500"/>
<text x="599.0" y="414.5" fill="#c3c2b7" font-size="9.5">13.46 s</text>
<rect x="90" y="422" width="530.0" height="16" rx="2" fill="#2dd4bf"/>
<text x="625.0" y="434.5" fill="#c3c2b7" font-size="9.5">19.54 s</text>
<text x="82" y="489.0" fill="#ffffff" font-size="11" font-weight="600" text-anchor="end">30q</text>
<text x="82" y="501.0" fill="#c3c2b7" font-size="8.5" text-anchor="end">16 GiB</text>
<rect x="90" y="458" width="556.0" height="16" rx="2" fill="none" stroke="#4a4945" stroke-width="1.5" stroke-dasharray="4,3"/>
<text x="652.0" y="470.5" fill="#c3c2b7" font-size="8.5" font-style="italic">rejected: "max supported is 29"</text>
<rect x="90" y="478" width="556.0" height="16" rx="2" fill="none" stroke="#4a4945" stroke-width="1.5" stroke-dasharray="4,3"/>
<text x="652.0" y="490.5" fill="#c3c2b7" font-size="8.5" font-style="italic">rejected: "maximum (29)"</text>
<rect x="90" y="498" width="556.0" height="16" rx="2" fill="none" stroke="#4a4945" stroke-width="1.5" stroke-dasharray="4,3"/>
<text x="652.0" y="510.5" fill="#c3c2b7" font-size="8.5" font-style="italic">not attempted (OOM risk)</text>
</svg>